<svg width="466" height="466" viewBox="0 0 466 466" fill="none" xmlns="http://www.w3.org/2000/svg">
<rect width="466" height="466" rx="117" fill="url(#paint0_linear_1_22)"/>
<path fill-rule="evenodd" clip-rule="evenodd" d="M245 182.888C245 175.216 250.499 168.807 257.429 165.515C276.686 156.367 290 136.738 290 114C290 82.5198 264.48 57 233 57C201.52 57 176 82.5198 176 114C176 137.214 189.878 157.188 209.79 166.076C216.597 169.114 222 175.318 222 182.772V190.196C222 192.762 220.26 194.984 217.885 195.954C215.534 196.915 212.806 196.542 211.01 194.747L110.395 94.1317C105.904 89.6407 98.6228 89.6407 94.1317 94.1317C89.6407 98.6228 89.6407 105.904 94.1317 110.395L195.077 211.34C196.676 212.94 197.011 215.374 196.131 217.459C195.262 219.519 193.309 221 191.073 221H106.5C100.149 221 95 226.149 95 232.5C95 238.851 100.149 244 106.5 244H189.914C192.647 244 195.011 245.855 196.063 248.378C197.117 250.908 196.74 253.86 194.802 255.798L94.1318 356.468C89.6407 360.959 89.6407 368.241 94.1318 372.732C98.6228 377.223 105.904 377.223 110.395 372.732L211.823 271.304C213.477 269.65 215.982 269.286 218.154 270.154C220.379 271.044 222 273.12 222 275.516V369.5C222 375.851 227.149 381 233.5 381C239.851 381 245 375.851 245 369.5V274.927C245 272.691 246.481 270.738 248.541 269.869C250.626 268.989 253.06 269.324 254.66 270.923L356.468 372.732C360.959 377.223 368.241 377.223 372.732 372.732C377.223 368.241 377.223 360.959 372.732 356.468L271.253 254.99C269.458 253.194 269.085 250.466 270.046 248.115C271.016 245.74 273.238 244 275.804 244H362.5C368.851 244 374 238.851 374 232.5C374 226.149 368.851 221 362.5 221H274.639C272.574 221 270.77 219.635 269.981 217.727C269.193 215.822 269.517 213.61 270.974 212.153L372.732 110.395C377.223 105.904 377.223 98.6228 372.732 94.1317C368.241 89.6407 360.959 89.6407 356.468 94.1317L255.468 195.132C253.725 196.875 251.066 197.217 248.802 196.243C246.594 195.292 245 193.195 245 190.791V182.888Z" fill="url(#paint1_linear_1_22)"/>
<circle cx="233" cy="233" r="34" fill="white"/>
<circle cx="233" cy="372" r="34" fill="white"/>
<circle cx="372" cy="372" r="34" fill="white"/>
<circle cx="372" cy="252" r="34" fill="white"/>
<circle cx="372" cy="94" r="34" fill="white"/>
<circle cx="233" cy="114" r="34" fill="white"/>
<circle cx="94" cy="372" r="34" fill="white"/>
<circle cx="94" cy="252" r="34" fill="white"/>
<circle cx="94" cy="94" r="34" fill="white"/>
<defs>
<linearGradient id="paint0_linear_1_22" x1="233" y1="0" x2="233" y2="466" gradientUnits="userSpaceOnUse">
<stop stop-color="#4F7F96"/>
<stop offset="1" stop-color="#021023"/>
</linearGradient>
<linearGradient id="paint1_linear_1_22" x1="233.432" y1="57" x2="233.432" y2="381" gradientUnits="userSpaceOnUse">
<stop stop-color="#54FFFF"/>
<stop offset="1" stop-color="#0037FB"/>
</linearGradient>
</defs>
</svg>
